<?xml version="1.0" encoding="iso-8859-1"?>
<!-- Generator: Adobe Illustrator 19.0.0, SVG Export Plug-In . SVG Version: 6.00 Build 0)  -->
<svg version="1.1" id="Layer_1" xmlns="http://www.w3.org/2000/svg" xmlns:xlink="http://www.w3.org/1999/xlink" x="0px" y="0px"
	 viewBox="0 0 512 512" style="enable-background:new 0 0 512 512;" xml:space="preserve">
<path style="fill:#306485;" d="M253.097,35.455c0,4.39,3.559,7.949,7.949,7.949h35.455L253.097,0V35.455z"/>
<path style="fill:#3B7BA3;" d="M253.097,0H152.536c-4.39,0-7.949,3.559-7.949,7.949v190.842c0,4.39,3.559,7.949,7.949,7.949h143.965
	V43.405h-35.455c-4.39,0-7.949-3.559-7.949-7.949L253.097,0L253.097,0z"/>
<path d="M253.097,0L253.097,0L253.097,0z"/>
<path style="fill:#3B7BA3;" d="M329.625,155.388c0,4.39,3.559,7.949,7.949,7.949h35.456l-43.404-43.405v35.456H329.625z"/>
<path style="fill:#4EA4D9;" d="M329.625,119.933H229.064c-4.39,0-7.949,3.559-7.949,7.949v198.791H373.03V163.336h-35.455
	c-4.39,0-7.949-3.559-7.949-7.949v-35.455H329.625z"/>
<path d="M329.625,119.933L329.625,119.933L329.625,119.933z"/>
<path style="fill:#56B5F0;" d="M297.073,119.933h-68.008c-4.39,0-7.949,3.559-7.949,7.949v198.791h75.957V119.933z"/>
<path style="fill:#4590BF;" d="M220.543,0h-68.008c-4.39,0-7.949,3.559-7.949,7.949v190.842c0,4.39,3.559,7.949,7.949,7.949h68.008
	V0z"/>
<polygon style="stroke:#000000;stroke-width:30;stroke-linejoin:round;stroke-miterlimit:10;" points="255.999,463.556 
	102.374,309.931 409.625,309.931 "/>
<path style="fill:#FF9800;" d="M425.454,303.375c-2.652-6.403-8.899-10.577-15.829-10.577H102.374
	c-6.93,0-13.176,4.174-15.829,10.577c-2.651,6.403-1.186,13.772,3.715,18.672l118.908,118.908v53.912
	c0,9.462,7.671,17.133,17.133,17.133h59.395c9.462,0,17.133-7.671,17.133-17.133v-53.912l118.909-118.909
	C426.64,317.146,428.106,309.776,425.454,303.375z"/>
<path style="fill:#F7DC4D;" d="M255.999,292.798H102.374c-6.93,0-13.176,4.174-15.829,10.577
	c-2.651,6.403-1.186,13.772,3.715,18.672l118.908,118.908v53.912c0,9.462,7.671,17.133,17.133,17.133h29.698L255.999,292.798
	L255.999,292.798z"/>
<path style="fill:#B36A00;" d="M208.863,440.649l0.305,0.305v53.912c0,9.463,7.671,17.133,17.133,17.133h59.395
	c9.463,0,17.133-7.671,17.133-17.133v-53.912l0.305-0.305H208.863z"/>
<path style="fill:#C97700;" d="M255.766,440.649h-46.902l0.305,0.305v53.912c0,9.463,7.671,17.133,17.133,17.133h29.463V440.649z"/>
<g>
</g>
<g>
</g>
<g>
</g>
<g>
</g>
<g>
</g>
<g>
</g>
<g>
</g>
<g>
</g>
<g>
</g>
<g>
</g>
<g>
</g>
<g>
</g>
<g>
</g>
<g>
</g>
<g>
</g>
</svg>
