<svg xmlns="http://www.w3.org/2000/svg" viewBox="0 0 489.493 489.493">
    <path d="M4.171 117.705c-12.204-12.238 3.274-47.577 34.636-78.93
    30.99-30.99 65.76-46.396 78.401-34.941l.246-.236
    173.715 156.02c32.117-27.993 80.684-27.038 111.278
    3.534a27.516 27.516 0 018.051 19.437 27.48 27.48 0 01-8.05
    19.43l-78.809 78.802 161.952 182.806c5.148 5.799 5.262 14.655-.015
    20.6-5.689 6.404-15.497 6.993-21.916 1.295L281.085 323.385l-7.84
    7.829-40.6 40.603-30.337 30.329a27.48 27.48 0 01-19.424 8.039 27.446
    27.446 0 01-19.419-8.056c-30.56-30.573-31.524-79.158-3.539-111.27L4.722
    118.029c-.156-.137-.406-.168-.55-.324z"/>
</svg>
